<svg xmlns="http://www.w3.org/2000/svg" data-name="Layer 1" viewBox="0 0 64 80" x="0px" y="0px"><title>software development, software developer, engineering, ai, industrial</title><path d="M61,10H38V6h9.18a3,3,0,1,0,0-2H37a1,1,0,0,0-1,1v5H28V5a1,1,0,0,0-1-1H16.82a3,3,0,1,0,0,2H26v4H3a1,1,0,0,0-1,1V49a1,1,0,0,0,1,1H25v6H15a1,1,0,0,0-1,1v4a1,1,0,0,0,1,1H49a1,1,0,0,0,1-1V57a1,1,0,0,0-1-1H39V50H61a1,1,0,0,0,1-1V11A1,1,0,0,0,61,10ZM50,4a1,1,0,1,1-1,1A1,1,0,0,1,50,4ZM14,6a1,1,0,1,1,1-1A1,1,0,0,1,14,6Zm22,6v9.76l-.88.87L35,22.58V21a1,1,0,0,0-1-1H30a1,1,0,0,0-1,1v1.58l-.12.05L28,21.76V12Zm1.28,15.15a5.8,5.8,0,0,1,.47,1.14,1,1,0,0,0,1,.71H40v2H38.71a1,1,0,0,0-1,.71,5.8,5.8,0,0,1-.47,1.14A1,1,0,0,0,37.45,34l.91.91L37,36.36,36,35.45a1,1,0,0,0-1.19-.17,5.8,5.8,0,0,1-1.14.47,1,1,0,0,0-.71,1V38H31V36.71a1,1,0,0,0-.71-1,5.8,5.8,0,0,1-1.14-.47,1,1,0,0,0-1.19.17l-.91.91L25.64,35l.91-.91a1,1,0,0,0,.17-1.19,5.8,5.8,0,0,1-.47-1.14,1,1,0,0,0-1-.71H24V29h1.29a1,1,0,0,0,1-.71,5.8,5.8,0,0,1,.47-1.14A1,1,0,0,0,26.55,26l-.91-.91,1.41-1.41.91.91a1,1,0,0,0,1.19.17,5.8,5.8,0,0,1,1.14-.47,1,1,0,0,0,.71-1V22h2v1.29a1,1,0,0,0,.71,1,5.8,5.8,0,0,1,1.14.47A1,1,0,0,0,36,24.55l.91-.91,1.41,1.41-.91.91A1,1,0,0,0,37.28,27.15ZM26,12v9.86l-2.49,2.48a1,1,0,0,0,0,1.42l1.12,1.12a.61.61,0,0,1-.05.12H23a1,1,0,0,0-1,1v1H11.82a3,3,0,1,0,0,2H22v1a1,1,0,0,0,1,1h1.58a.61.61,0,0,1,.05.12l-1.12,1.12a1,1,0,0,0-.29.71,1.05,1.05,0,0,0,.29.71l2.83,2.83a1,1,0,0,0,1.42,0l1.12-1.12.12.05V39a1,1,0,0,0,1,1h4a1,1,0,0,0,1-1V37.42l.12-.05,1.12,1.12a1,1,0,0,0,1.42,0l2.83-2.83a1.05,1.05,0,0,0,.29-.71,1,1,0,0,0-.29-.71l-1.12-1.12a.61.61,0,0,1,.05-.12H41a1,1,0,0,0,1-1V31H52.18a3,3,0,1,0,0-2H42V28a1,1,0,0,0-1-1H39.42a.61.61,0,0,1-.05-.12l1.12-1.12a1,1,0,0,0,0-1.42L38,21.86V12H60V44H4V12ZM10,30a1,1,0,1,1-1-1A1,1,0,0,1,10,30Zm44,0a1,1,0,1,1,1,1A1,1,0,0,1,54,30ZM48,60H16V58H48ZM37,56H27V50H37ZM4,48V46H60v2Z"/><path d="M32,26a4,4,0,1,0,4,4A4,4,0,0,0,32,26Zm0,6a2,2,0,1,1,2-2A2,2,0,0,1,32,32Z"/><path d="M7,16h5v8a1,1,0,0,0,1,1h6a1,1,0,0,0,0-2H14V15a1,1,0,0,0-1-1H7a1,1,0,0,0,0,2Z"/><path d="M57,14H51a1,1,0,0,0-1,1v8H45a1,1,0,0,0,0,2h6a1,1,0,0,0,1-1V16h5a1,1,0,0,0,0-2Z"/><text x="0" y="79" fill="#000000" font-size="5px" font-weight="bold" font-family="'Helvetica Neue', Helvetica, Arial-Unicode, Arial, Sans-serif">Created by Studio 365</text><text x="0" y="84" fill="#000000" font-size="5px" font-weight="bold" font-family="'Helvetica Neue', Helvetica, Arial-Unicode, Arial, Sans-serif">from the Noun Project</text></svg>