<svg xmlns="http://www.w3.org/2000/svg" xmlns:xlink="http://www.w3.org/1999/xlink" version="1.1" x="0px" y="0px" viewBox="0 0 450 562.5" style="enable-background:new 0 0 450 450;" xml:space="preserve"><g><g><path d="M202,322.1c-7.9,0-16.3-1.8-23.1-5.4l-118.6-63c-7.5-4-11.7-9.6-11.7-15.5c0-2.9,1.1-8.3,8.4-12.2l0,0l125.2-66.5    c10.3-5.5,27.9-4.7,40.1,1.8l118.6,63c7.5,4,11.7,9.6,11.7,15.4c0,2.9-1.1,8.3-8.4,12.2l-125.2,66.5    C214.5,320.9,208.4,322.1,202,322.1z M61.8,234.9c-0.9,0.5-3.1,1.8-3.1,3.4c0,1.6,2,4.3,6.4,6.6l118.6,63    c9.1,4.8,23.4,5.6,30.8,1.8l125.2-66.5c0.9-0.5,3.1-1.8,3.1-3.4c0-1.6-2-4.3-6.4-6.6l-118.6-63c-9.1-4.8-23.4-5.6-30.8-1.8    L61.8,234.9z"/></g><g><path d="M281.4,392.1H120c-17.3,0-31.4-14.1-31.4-31.4v-95.1c0-1.8,0.9-3.4,2.4-4.3c1.5-0.9,3.4-1,4.9-0.1l87.7,46.5    c9.1,4.8,23.4,5.6,30.8,1.8l91-48.3c1.5-0.8,3.4-0.8,4.9,0.1s2.4,2.5,2.4,4.3v95.1C312.7,378.1,298.7,392.1,281.4,392.1z     M98.7,274v86.8c0,11.8,9.6,21.4,21.4,21.4h161.4c11.8,0,21.4-9.6,21.4-21.4V274l-83.6,44.4c-10.3,5.5-27.9,4.7-40.1-1.8L98.7,274    z"/></g><g><path d="M375.2,336.8c-2.8,0-5-2.2-5-5V244H200.7c-2.8,0-5-2.2-5-5s2.2-5,5-5h174.5c2.8,0,5,2.2,5,5v92.8    C380.2,334.5,378,336.8,375.2,336.8z"/></g><g><path d="M375.2,380c-14.7,0-26.6-11.9-26.6-26.6s11.9-26.6,26.6-26.6s26.6,11.9,26.6,26.6S389.9,380,375.2,380z M375.2,336.8    c-9.2,0-16.6,7.5-16.6,16.6s7.5,16.6,16.6,16.6s16.6-7.5,16.6-16.6C391.9,344.2,384.4,336.8,375.2,336.8z"/></g><g><path d="M410.6,362.7h-14.2c-2.8,0-5-2.2-5-5s2.2-5,5-5h14.2c14.2,0,25.7-11.5,25.7-25.7V95c0-14.2-11.5-25.7-25.7-25.7H39.9    c-14.2,0-25.7,11.5-25.7,25.7v232c0,14.2,11.5,25.7,25.7,25.7h53.7c2.8,0,5,2.2,5,5s-2.2,5-5,5H39.9c-19.7,0-35.7-16-35.7-35.7V95    c0-19.7,16-35.7,35.7-35.7h370.7c19.7,0,35.7,16,35.7,35.7v232C446.3,346.7,430.3,362.7,410.6,362.7z M354,362.7h-46.3    c-2.8,0-5-2.2-5-5s2.2-5,5-5h40.9c0.3-2.4,2.4-4.3,5-4.3c2.8,0,5,2.2,5,5c0,1.1,0.1,2.2,0.3,3.3c0.3,1.5-0.1,3-1,4.2    C357,362,355.5,362.7,354,362.7z"/></g><g><path d="M441.3,130H9.3c-2.8,0-5-2.2-5-5s2.2-5,5-5h432c2.8,0,5,2.2,5,5S444,130,441.3,130z"/></g><g><path d="M72.5,111.6c-9.3,0-16.9-7.6-16.9-16.9s7.6-16.9,16.9-16.9s16.9,7.6,16.9,16.9S81.8,111.6,72.5,111.6z M72.5,87.8    c-3.8,0-6.9,3.1-6.9,6.9s3.1,6.9,6.9,6.9s6.9-3.1,6.9-6.9S76.3,87.8,72.5,87.8z"/></g><g><path d="M111.6,111.6c-9.3,0-16.9-7.6-16.9-16.9s7.6-16.9,16.9-16.9s16.9,7.6,16.9,16.9S120.9,111.6,111.6,111.6z M111.6,87.8    c-3.8,0-6.9,3.1-6.9,6.9s3.1,6.9,6.9,6.9c3.8,0,6.9-3.1,6.9-6.9S115.4,87.8,111.6,87.8z"/></g><g><path d="M150.7,111.6c-9.3,0-16.9-7.6-16.9-16.9s7.6-16.9,16.9-16.9s16.9,7.6,16.9,16.9S160.1,111.6,150.7,111.6z M150.7,87.8    c-3.8,0-6.9,3.1-6.9,6.9s3.1,6.9,6.9,6.9s6.9-3.1,6.9-6.9S154.5,87.8,150.7,87.8z"/></g><g><path d="M378.2,111.6h-96.4c-9.3,0-16.9-7.6-16.9-16.9s7.6-16.9,16.9-16.9h96.4c9.3,0,16.9,7.6,16.9,16.9S387.6,111.6,378.2,111.6    z M281.8,87.8c-3.8,0-6.9,3.1-6.9,6.9c0,3.8,3.1,6.9,6.9,6.9h96.4c3.8,0,6.9-3.1,6.9-6.9c0-3.8-3.1-6.9-6.9-6.9H281.8z"/></g></g><text x="0" y="465" fill="#000000" font-size="5px" font-weight="bold" font-family="'Helvetica Neue', Helvetica, Arial-Unicode, Arial, Sans-serif">Created by SAM Designs</text><text x="0" y="470" fill="#000000" font-size="5px" font-weight="bold" font-family="'Helvetica Neue', Helvetica, Arial-Unicode, Arial, Sans-serif">from the Noun Project</text></svg>