<svg xmlns="http://www.w3.org/2000/svg" xmlns:xlink="http://www.w3.org/1999/xlink" version="1.1" x="0px" y="0px" viewBox="0 0 100 125" style="enable-background:new 0 0 100 100;" xml:space="preserve"><path d="M25.23,27.032l-6.505-6.505v3.992c0,0.633-0.513,1.146-1.146,1.146c-0.633,0-1.146-0.513-1.146-1.146v-6.759  c0-0.633,0.513-1.146,1.146-1.146h6.759c0.633,0,1.146,0.513,1.146,1.146c0,0.633-0.513,1.146-1.146,1.146h-3.992l6.504,6.505  c0.448,0.448,0.448,1.173,0,1.621c-0.224,0.224-0.517,0.336-0.81,0.336C25.747,27.368,25.454,27.256,25.23,27.032z M73.959,27.368  c0.293,0,0.587-0.112,0.811-0.336l6.504-6.504v3.992c0,0.633,0.513,1.146,1.146,1.146c0.633,0,1.146-0.513,1.146-1.146v-6.759  c0-0.633-0.513-1.146-1.146-1.146h-6.759c-0.633,0-1.146,0.513-1.146,1.146c0,0.633,0.513,1.146,1.146,1.146h3.992l-6.504,6.505  c-0.448,0.448-0.448,1.173,0,1.621C73.373,27.256,73.666,27.368,73.959,27.368z M46.031,9.921l2.823-2.823v9.199  c0,0.633,0.513,1.146,1.146,1.146s1.146-0.513,1.146-1.146V7.099l2.823,2.823c0.448,0.448,1.173,0.448,1.621,0  c0.448-0.448,0.448-1.173,0-1.621L50.81,3.521C50.595,3.306,50.304,3.185,50,3.185s-0.596,0.121-0.81,0.336L44.41,8.3  c-0.448,0.448-0.448,1.173,0,1.621C44.858,10.369,45.584,10.369,46.031,9.921z M96.66,49.734l-4.779-4.779  c-0.448-0.448-1.173-0.448-1.621,0c-0.448,0.448-0.448,1.173,0,1.621l2.823,2.823h-9.199c-0.633,0-1.146,0.513-1.146,1.146  s0.513,1.146,1.146,1.146h9.199l-2.823,2.823c-0.448,0.448-0.448,1.173,0,1.621c0.224,0.224,0.517,0.336,0.811,0.336  c0.293,0,0.587-0.112,0.811-0.336l4.779-4.779c0.215-0.215,0.336-0.507,0.336-0.811C96.996,50.24,96.875,49.949,96.66,49.734z   M16.116,49.398H6.917l2.823-2.823c0.448-0.448,0.448-1.173,0-1.621c-0.448-0.448-1.174-0.448-1.621,0L3.34,49.734  c-0.215,0.215-0.336,0.507-0.336,0.81c0,0.304,0.121,0.596,0.336,0.811l4.779,4.779c0.224,0.224,0.517,0.336,0.811,0.336  c0.293,0,0.587-0.112,0.811-0.336c0.448-0.448,0.448-1.173,0-1.621l-2.823-2.823h9.199c0.633,0,1.146-0.513,1.146-1.146  S16.749,49.398,16.116,49.398z M69.44,48.641v3.806c0,1.055-0.753,1.958-1.791,2.146l-2.108,0.382  c-0.339,1.189-0.816,2.34-1.419,3.422l1.221,1.762c0.601,0.867,0.495,2.039-0.251,2.785l-2.691,2.691  c-0.746,0.746-1.917,0.852-2.785,0.251l-1.763-1.221c-1.083,0.603-2.233,1.081-3.422,1.419l-0.383,2.108  c-0.188,1.038-1.091,1.792-2.146,1.792h-3.806c-1.055,0-1.958-0.754-2.146-1.792l-0.383-2.107c-1.189-0.339-2.34-0.816-3.422-1.419  l-1.762,1.22c-0.867,0.601-2.039,0.496-2.785-0.251l-2.691-2.691c-0.746-0.746-0.852-1.917-0.251-2.784l1.221-1.763  c-0.603-1.082-1.081-2.233-1.419-3.422l-2.108-0.383c-1.038-0.188-1.792-1.091-1.792-2.146v-3.806c0-1.055,0.754-1.958,1.792-2.146  l2.107-0.383c0.339-1.189,0.816-2.34,1.419-3.422l-1.22-1.762c-0.601-0.867-0.496-2.039,0.251-2.785l2.691-2.691  c0.746-0.746,1.917-0.852,2.785-0.251l1.763,1.221c1.083-0.604,2.233-1.081,3.422-1.419l0.383-2.108  c0.188-1.038,1.091-1.792,2.146-1.792h3.806c1.055,0,1.958,0.754,2.146,1.792l0.383,2.108c1.188,0.338,2.339,0.815,3.422,1.419  l1.763-1.221c0.867-0.601,2.039-0.496,2.785,0.251l2.691,2.691c0.746,0.746,0.852,1.917,0.251,2.784l-1.221,1.763  c0.603,1.083,1.08,2.233,1.419,3.421l2.108,0.383C68.687,46.684,69.44,47.586,69.44,48.641z M67.148,48.734l-2.085-0.378  c-0.829-0.151-1.484-0.748-1.711-1.558c-0.296-1.058-0.721-2.082-1.262-3.043c-0.413-0.734-0.372-1.62,0.108-2.312l1.208-1.743  l-2.56-2.56l-1.743,1.207c-0.692,0.48-1.578,0.521-2.312,0.108c-0.961-0.541-1.984-0.965-3.043-1.262  c-0.811-0.227-1.408-0.882-1.558-1.711l-0.378-2.085H48.19l-0.378,2.085c-0.15,0.829-0.747,1.484-1.558,1.711  c-1.057,0.296-2.081,0.721-3.043,1.262c-0.734,0.413-1.62,0.372-2.312-0.108l-1.743-1.208l-2.56,2.56l1.207,1.743  c0.48,0.692,0.521,1.578,0.108,2.312c-0.541,0.961-0.965,1.985-1.262,3.044c-0.227,0.811-0.883,1.408-1.711,1.558l-2.084,0.378  v3.621l2.085,0.378c0.828,0.151,1.484,0.748,1.711,1.558c0.296,1.058,0.721,2.082,1.262,3.043c0.413,0.734,0.372,1.62-0.108,2.312  l-1.208,1.743l2.56,2.56l1.743-1.207c0.693-0.48,1.579-0.521,2.313-0.107c0.96,0.541,1.984,0.965,3.043,1.262  c0.811,0.227,1.408,0.883,1.558,1.711l0.378,2.084h3.621l0.378-2.085c0.15-0.829,0.747-1.484,1.558-1.711  c1.058-0.296,2.082-0.721,3.043-1.262c0.734-0.413,1.62-0.372,2.312,0.108l1.743,1.208l2.56-2.56l-1.207-1.742  c-0.48-0.693-0.521-1.579-0.108-2.312c0.541-0.961,0.965-1.985,1.262-3.044c0.227-0.81,0.882-1.407,1.711-1.558l2.085-0.378V48.734z   M60.529,50.544c0,5.805-4.723,10.529-10.529,10.529S39.471,56.35,39.471,50.544S44.194,40.016,50,40.016  S60.529,44.739,60.529,50.544z M58.236,50.544c0-4.541-3.695-8.236-8.236-8.236s-8.236,3.695-8.236,8.236S45.459,58.78,50,58.78  S58.236,55.086,58.236,50.544z M86.546,64.313c0.577,1.116,0.536,2.368-0.113,3.434c-0.756,1.242-2.214,2.013-3.806,2.013h-2.851  c0.027,0.048,0.059,0.101,0.095,0.161c0.052,0.087,0.109,0.182,0.172,0.29c0.79,1.368,0.867,2.804,0.212,3.938  c-0.223,0.385-0.516,0.712-0.866,0.972c0.158,0.25,0.284,0.524,0.373,0.818c0.418,1.376-0.072,2.868-1.283,3.99  c-0.493,3.665-1.86,6.947-7.603,6.947h-2.569c-1.147,0-2.08,0.933-2.08,2.08v6.713c0,0.633-0.513,1.146-1.146,1.146H34.919  c-0.633,0-1.146-0.513-1.146-1.146V81.253c0-3.771-1.377-7.01-4.092-9.627c-5.779-5.571-8.962-13.058-8.962-21.082  c0-16.146,13.136-29.281,29.281-29.281c16.052,0,29.129,12.983,29.28,29L86.546,64.313z M84.51,65.366l-7.393-14.295  c-0.084-0.163-0.128-0.343-0.128-0.526c0-14.882-12.107-26.989-26.989-26.989c-14.882,0-26.989,12.107-26.989,26.989  c0,7.396,2.934,14.297,8.26,19.432c3.18,3.066,4.793,6.86,4.793,11.277v13.269h27.871v-5.566c0-2.411,1.961-4.372,4.372-4.372h2.569  c4.048,0,4.961-1.732,5.382-5.37c0.036-0.307,0.193-0.586,0.438-0.775c0.725-0.56,1.051-1.245,0.873-1.832  c-0.13-0.429-0.502-0.719-0.975-0.762H74.11c-0.633,0-1.146-0.513-1.146-1.146c0-0.633,0.513-1.146,1.146-1.146h2.517  c0.007,0,0.014,0,0.021,0h0.385c0.593,0,1.032-0.195,1.237-0.549c0.234-0.406,0.157-1.006-0.212-1.646  c-0.055-0.095-0.105-0.179-0.151-0.255c-0.433-0.72-0.599-1.12-0.617-2.473c-0.004-0.307,0.115-0.602,0.33-0.82  c0.215-0.218,0.509-0.341,0.816-0.341h4.192c0.785,0,1.51-0.358,1.848-0.913C84.708,66.172,84.72,65.772,84.51,65.366z"/><text x="0" y="115" fill="#000000" font-size="5px" font-weight="bold" font-family="'Helvetica Neue', Helvetica, Arial-Unicode, Arial, Sans-serif">Created by Radhika Studio</text><text x="0" y="120" fill="#000000" font-size="5px" font-weight="bold" font-family="'Helvetica Neue', Helvetica, Arial-Unicode, Arial, Sans-serif">from the Noun Project</text></svg>