<svg xmlns="http://www.w3.org/2000/svg" data-name="Layer 1" viewBox="0 0 100 125" x="0px" y="0px"><title>Artboard 109</title><path d="M72.28,60.77a1.5,1.5,0,0,0-1.5-1.5h-9a1.5,1.5,0,0,0,0,3h9A1.5,1.5,0,0,0,72.28,60.77Z"/><path d="M66.28,21.77v-7.5a1.5,1.5,0,1,0-3,0v7.5a7.51,7.51,0,0,0,7.5,7.5h13.5v28.5a1.5,1.5,0,1,0,3,0v-30a1.5,1.5,0,0,0-1.5-1.5h-15A4.51,4.51,0,0,1,66.28,21.77Z"/><path d="M70.78,41.27h-12a1.5,1.5,0,0,0,0,3h12a1.5,1.5,0,0,0,0-3Z"/><path d="M54.28,42.77a1.5,1.5,0,0,0-1.5-1.5h-9a1.5,1.5,0,0,0,0,3h9A1.5,1.5,0,0,0,54.28,42.77Z"/><path d="M43.78,50.27a1.5,1.5,0,0,0,0,3h3a1.5,1.5,0,0,0,0-3Z"/><path d="M43.78,35.27h15a1.5,1.5,0,0,0,0-3h-15a1.5,1.5,0,0,0,0,3Z"/><path d="M52.78,53.27h15a1.5,1.5,0,0,0,0-3h-15a1.5,1.5,0,0,0,0,3Z"/><path d="M61.78,68.27a1.5,1.5,0,0,0,0,3h3a1.5,1.5,0,0,0,0-3Z"/><path d="M55.78,59.27h-12a1.5,1.5,0,0,0,0,3h12a1.5,1.5,0,0,0,0-3Z"/><path d="M55.78,68.27h-12a1.5,1.5,0,0,0,0,3h12a1.5,1.5,0,0,0,0-3Z"/><path d="M91.49,67.05l-3-3a5.64,5.64,0,0,0-8.12,0L60.72,83.71a1.5,1.5,0,0,0-.44,1.06v9a1.5,1.5,0,0,0,1.5,1.5h9a1.5,1.5,0,0,0,1.06-.44L91.49,75.17A5.49,5.49,0,0,0,91.49,67.05ZM78.43,70.23l2.38,2.38-13,13L65.4,83.27Zm-15.15,22V85.39l6.88,6.88Zm9-2.13L69.9,87.77l13-13,2.38,2.38ZM89.37,73.05,87.43,75l-6.88-6.88,1.94-1.94a2.56,2.56,0,0,1,3.88,0l3,3A2.51,2.51,0,0,1,89.37,73.05Z"/><path d="M55.78,92.27h-39a4.51,4.51,0,0,1-4.5-4.5v-75a4.51,4.51,0,0,1,4.5-4.5H64.16L78.72,22.83a1.51,1.51,0,0,0,2.12,0,1.49,1.49,0,0,0,0-2.12l-15-15a1.46,1.46,0,0,0-1.06-.44h-48a7.51,7.51,0,0,0-7.5,7.5v75a7.52,7.52,0,0,0,7.5,7.5h39a1.5,1.5,0,1,0,0-3Z"/><path d="M55.78,77.27h-12a1.5,1.5,0,0,0,0,3h12a1.5,1.5,0,1,0,0-3Z"/><path d="M36.28,33.77a1.5,1.5,0,0,0-1.5-1.5h-9a1.5,1.5,0,0,0-1.5,1.5v9a1.5,1.5,0,0,0,1.5,1.5h9a1.5,1.5,0,0,0,1.5-1.5Zm-3,7.5h-6v-6h6Z"/><path d="M25.78,62.27h9a1.5,1.5,0,0,0,1.5-1.5v-9a1.5,1.5,0,0,0-1.5-1.5h-9a1.5,1.5,0,0,0-1.5,1.5v9A1.5,1.5,0,0,0,25.78,62.27Zm1.5-9h6v6h-6Z"/><path d="M25.78,80h9a1.5,1.5,0,0,0,1.5-1.5v-9a1.5,1.5,0,0,0-1.5-1.5h-9a1.5,1.5,0,0,0-1.5,1.5v9A1.5,1.5,0,0,0,25.78,80Zm1.5-9h6v6h-6Z"/><text x="0" y="115" fill="#000000" font-size="5px" font-weight="bold" font-family="'Helvetica Neue', Helvetica, Arial-Unicode, Arial, Sans-serif">Created by Arjan</text><text x="0" y="120" fill="#000000" font-size="5px" font-weight="bold" font-family="'Helvetica Neue', Helvetica, Arial-Unicode, Arial, Sans-serif">from the Noun Project</text></svg>