<svg xmlns="http://www.w3.org/2000/svg" xmlns:xlink="http://www.w3.org/1999/xlink" version="1.1" x="0px" y="0px" viewBox="0 0 66 82.5" enable-background="new 0 0 66 66" xml:space="preserve"><g><path d="M40.9405,1.0028c-13.2734,0-24.0723,10.7935-24.0728,24.0601c-0.0004,4.7399,1.365,9.2678,3.9029,13.1421l-2.328,2.3283   l-1.1237-1.1237c-0.3906-0.3906-1.0234-0.3906-1.4141,0L3.212,52.1019c-2.9515,2.9495-2.9526,7.7291,0,10.6816   c2.9506,2.9506,7.7292,2.9525,10.6816,0l12.6929-12.6924c0.1875-0.1875,0.293-0.4414,0.293-0.707s-0.1055-0.5195-0.293-0.707   l-1.1233-1.1233l2.3305-2.3305c3.8762,2.5358,8.4061,3.9001,13.1478,3.9001c13.2666,0,24.0601-10.793,24.0605-24.0596   C65.003,11.768,54.2418,1.0028,40.9405,1.0028z M12.4796,61.3695c-2.1688,2.1688-5.6831,2.1704-7.8535,0   c-2.1702-2.1702-2.1704-5.6831,0-7.8535l8.2653-8.265l7.8535,7.8535L12.4796,61.3695z M21.4519,52.3975l-7.8535-7.8535   l3.0135-3.0134c0.1188,0.1188,8.2059,8.2059,7.8535,7.8535L21.4519,52.3975z M24.0492,46.1398l-4.1924-4.1924l2.097-2.0972   c1.2654,1.6166,2.5753,2.9259,4.194,4.1912L24.0492,46.1398z M40.9415,47.1234h-0.002c-12.1954,0-22.0718-9.8597-22.0718-22.0605   c0.0005-12.1641,9.9028-22.0601,22.0737-22.0601c12.1902,0,22.0605,9.8651,22.0605,22.061   C63.0015,37.2279,53.1051,47.1234,40.9415,47.1234z"/><path d="M59.9557,25.0638C59.9561,14.5795,51.421,6.0492,40.9298,6.0487c-10.4854,0-19.0156,8.5298-19.0156,19.0142   c0,10.2722,8.3287,19.0146,19.0142,19.0146C51.5786,44.0775,59.9552,35.3536,59.9557,25.0638z M40.9298,7.0487   c9.9399,0.0005,18.0264,8.082,18.0259,18.0151c-0.0001,1.0365-0.1075,2.0465-0.2766,3.0356   c-0.6535-0.7612-1.4476-1.3853-2.3518-1.8218c-0.1636-0.0791-0.3594-0.0635-0.5073,0.043c-1.6348,1.166-3.959,1.1553-5.5576,0.002   c-0.1504-0.1084-0.3481-0.125-0.5132-0.0439c-1.9305,0.9497-3.3362,2.6653-3.9001,4.7245   c-2.924,2.0056-6.9277,2.0031-9.8259,0.0087c-0.5643-2.0751-1.9721-3.7943-3.9043-4.7332   c-0.1646-0.0811-0.3599-0.0645-0.5088,0.042c-1.623,1.1563-3.9375,1.1641-5.5703,0c-0.1489-0.1074-0.3467-0.124-0.5107-0.041   c-0.902,0.4431-1.6925,1.0683-2.3416,1.8248c-0.1695-0.9968-0.2731-2.0106-0.2731-3.0416   C22.9141,15.1297,30.9957,7.0487,40.9298,7.0487z M23.4614,29.4009c0.5751-0.8706,1.3425-1.5917,2.2555-2.093   c1.8594,1.1836,4.3677,1.1738,6.2173,0c1.4658,0.7983,2.5799,2.1807,3.0712,3.7838c-2.9376,1.5697-5.108,4.2008-6.0876,7.3563   C26.0572,35.8744,24.299,32.7858,23.4614,29.4009z M29.7456,39.1632c0.8412-3.1211,2.9286-5.7395,5.8062-7.2478   c3.1802,2.1367,7.5474,2.1416,10.7544-0.001c2.8843,1.501,4.9753,4.1187,5.8163,7.2433   c-3.0784,2.4465-6.9645,3.9198-11.1942,3.9198C36.8188,43.0775,32.9211,41.6942,29.7456,39.1632z M52.9517,38.4473   c-0.9781-3.158-3.1489-5.787-6.0893-7.3517c0.4907-1.6151,1.5837-2.9718,3.0728-3.7866c1.8311,1.1729,4.3481,1.1816,6.2095-0.002   c0.9123,0.4926,1.6814,1.2129,2.2614,2.0905C57.5236,32.9465,55.5919,36.0763,52.9517,38.4473z"/><path d="M28.8209,26.1488c1.9136,0,3.4702-1.5518,3.4702-3.46s-1.5566-3.46-3.4702-3.46c-1.9023,0-3.4502,1.5518-3.4502,3.46   S26.9185,26.1488,28.8209,26.1488z M28.8209,20.2289c1.3623,0,2.4702,1.1035,2.4702,2.46s-1.1079,2.46-2.4702,2.46   c-1.3511,0-2.4502-1.1035-2.4502-2.46S27.4698,20.2289,28.8209,20.2289z"/><path d="M40.9307,29.9593c3.1157,0,5.6504-2.5254,5.6504-5.6299c0-3.1152-2.5347-5.6504-5.6504-5.6504   c-3.1099,0-5.6396,2.5352-5.6396,5.6504C35.2911,27.4339,37.8209,29.9593,40.9307,29.9593z M40.9307,19.6791   c2.5645,0,4.6504,2.0859,4.6504,4.6504c0,2.5527-2.0859,4.6299-4.6504,4.6299c-2.5581,0-4.6396-2.0771-4.6396-4.6299   C36.2911,21.765,38.3726,19.6791,40.9307,19.6791z"/><path d="M53.0411,26.1488c1.9077,0,3.46-1.5518,3.46-3.46s-1.5522-3.46-3.46-3.46s-3.46,1.5518-3.46,3.46   S51.1334,26.1488,53.0411,26.1488z M53.0411,20.2289c1.3564,0,2.46,1.1035,2.46,2.46s-1.1035,2.46-2.46,2.46   s-2.46-1.1035-2.46-2.46S51.6847,20.2289,53.0411,20.2289z"/></g><text x="0" y="81" fill="#000000" font-size="5px" font-weight="bold" font-family="'Helvetica Neue', Helvetica, Arial-Unicode, Arial, Sans-serif">Created by ProSymbols</text><text x="0" y="86" fill="#000000" font-size="5px" font-weight="bold" font-family="'Helvetica Neue', Helvetica, Arial-Unicode, Arial, Sans-serif">from the Noun Project</text></svg>