<svg xmlns="http://www.w3.org/2000/svg" data-name="Layer 1" viewBox="0 0 128 160" x="0px" y="0px"><title>miscellaneous 225_expandline</title><path d="M110.8301,46.4956l1.1177-.6602a5.98058,5.98058,0,0,1,2.6035-.8046A54.25144,54.25144,0,0,0,81,12.7583V16.981A50.25032,50.25032,0,0,1,110.8301,46.4956Z"/><path d="M17.1699,46.4956A50.25032,50.25032,0,0,1,47,16.981V12.7583A54.25146,54.25146,0,0,0,13.4487,45.0308a5.98058,5.98058,0,0,1,2.6035.8046Z"/><path d="M110.8301,81.5063A50.25048,50.25048,0,0,1,81,111.021v4.2227a54.25266,54.25266,0,0,0,33.5513-32.2725,5.98481,5.98481,0,0,1-2.604-.8047Z"/><path d="M17.1699,81.5063l-1.1172.6602a5.98481,5.98481,0,0,1-2.604.8047A54.25267,54.25267,0,0,0,47,115.2437V111.021A50.25048,50.25048,0,0,1,17.1699,81.5063Z"/><path d="M51.9824,23.2207l11,6.501a2.01771,2.01771,0,0,0,2.0352,0l11-6.501A1.99834,1.99834,0,0,0,77,21.499V8.5a1.99834,1.99834,0,0,0-.9824-1.7217l-11-6.5a1.99942,1.99942,0,0,0-2.0352,0l-11,6.5A1.99834,1.99834,0,0,0,51,8.5V21.499A1.99834,1.99834,0,0,0,51.9824,23.2207ZM55,9.6406l9-5.3174,9,5.3174V20.3584l-9,5.3184-9-5.3184Z"/><path d="M76.0176,104.7803l-11-6.5a1.99942,1.99942,0,0,0-2.0352,0l-11,6.5A1.99932,1.99932,0,0,0,51,106.502v12.9995a1.99928,1.99928,0,0,0,.9824,1.7216l11,6.5005a2.0118,2.0118,0,0,0,2.0352,0l11-6.5005A1.99928,1.99928,0,0,0,77,119.5015V106.502A1.99932,1.99932,0,0,0,76.0176,104.7803ZM73,118.3604l-9,5.3183-9-5.3183V107.6431l9-5.3179,9,5.3179Z"/><path d="M25.0176,72.2222A1.99957,1.99957,0,0,0,26,70.5005V57.501a1.99957,1.99957,0,0,0-.9824-1.7217l-11-6.5a1.99942,1.99942,0,0,0-2.0352,0l-11,6.5A1.99962,1.99962,0,0,0,0,57.501V70.5005a1.99962,1.99962,0,0,0,.98242,1.7217l11,6.5005a2.01345,2.01345,0,0,0,2.0352,0ZM4,69.3594V58.6421l9-5.3179,9,5.3179V69.3594l-9,5.3183Z"/><path d="M127.0176,55.7793l-11-6.5a1.99942,1.99942,0,0,0-2.0352,0l-11,6.5A1.99956,1.99956,0,0,0,102,57.501V70.5005a1.99956,1.99956,0,0,0,.9824,1.7217l11,6.5005a2.01227,2.01227,0,0,0,2.0352,0l11-6.5005A1.99957,1.99957,0,0,0,128,70.5005V57.501A1.99957,1.99957,0,0,0,127.0176,55.7793ZM124,69.3594l-9,5.3183-9-5.3183V58.6421l9-5.3179,9,5.3179Z"/><path d="M75,49.001a11,11,0,1,0-11,11A11.01242,11.01242,0,0,0,75,49.001Zm-11,7a7,7,0,1,1,7-7A7.00788,7.00788,0,0,1,64,56.001Z"/><path d="M73.1035,63.7144a1.99975,1.99975,0,0,0,.4653,2.0317l2.795,2.8638-.6641,4.0693a2.00034,2.00034,0,0,0,2.9414,2.0723L82,72.895l3.3589,1.8565a2.00034,2.00034,0,0,0,2.9414-2.0723l-.6641-4.0693,2.795-2.8638a2,2,0,0,0-1.129-3.374l-3.7817-.5782-1.71-3.643a2.00025,2.00025,0,0,0-3.621,0l-1.71,3.643-3.7817.5782A1.99917,1.99917,0,0,0,73.1035,63.7144Zm7.0352,1.8725A2.00038,2.00038,0,0,0,81.647,64.46L82,63.7075l.353.7525a2.00038,2.00038,0,0,0,1.5083,1.1269l.9888.1509-.7813.8008a1.99949,1.99949,0,0,0-.5429,1.7187l.1636,1.001-.7222-.3989a1.99984,1.99984,0,0,0-1.9346,0l-.7222.3989.1636-1.001a1.99949,1.99949,0,0,0-.5429-1.7187l-.7813-.8008Z"/><path d="M59.3535,63.2554,57.0376,75.0278a1.99948,1.99948,0,0,0,.6103,1.8599l5,4.5869a1.99969,1.99969,0,0,0,2.7042,0l5-4.5869a1.99948,1.99948,0,0,0,.6103-1.8599L68.6465,63.2554a14.89252,14.89252,0,0,1-3.9375.7094l2.1118,10.7344L64,77.2871l-2.8208-2.5879L63.291,63.9648A14.89252,14.89252,0,0,1,59.3535,63.2554Z"/><path d="M86,85.0605v-6.08a5.98067,5.98067,0,0,1-2.5762-.7281L82,77.4653v7.5952a1.909,1.909,0,0,1-1.8711,1.9405H47.8711A1.909,1.909,0,0,1,46,85.0605V72.1055a9.0186,9.0186,0,0,1,8.9087-9.1045h3.751a15.02377,15.02377,0,0,1-5.6626-3.8399A13.05246,13.05246,0,0,0,42,72.1055v12.955a5.913,5.913,0,0,0,5.8711,5.9405H80.1289A5.913,5.913,0,0,0,86,85.0605Z"/><path d="M69.6958,12.2075a2.00026,2.00026,0,0,0-2.7559-.6357l-4.0297,2.5195-1.3438-1.6924a2.00007,2.00007,0,0,0-3.1328,2.4873l2.4551,3.0918a2.02073,2.02073,0,0,0,2.6264.4522l5.545-3.4668A1.9995,1.9995,0,0,0,69.6958,12.2075Z"/><path d="M61.5664,110.3989a2.00007,2.00007,0,0,0-3.1328,2.4873l2.4551,3.0918a2.02918,2.02918,0,0,0,2.6264.4522l5.545-3.4668a1.99989,1.99989,0,0,0-2.1202-3.3916l-4.0297,2.5195Z"/><path d="M15.9399,60.5718l-4.0297,2.5195-1.3438-1.6924a2.00007,2.00007,0,0,0-3.13281,2.4873L9.88867,66.978a2.02714,2.02714,0,0,0,2.62643.4522l5.545-3.4668a1.99989,1.99989,0,0,0-2.1202-3.3916Z"/><path d="M112.5664,61.3989a2.00007,2.00007,0,0,0-3.1328,2.4873l2.4551,3.0918a2.02859,2.02859,0,0,0,2.6264.4522l5.545-3.4668a1.99989,1.99989,0,1,0-2.1202-3.3916l-4.0297,2.5195Z"/><text x="0" y="143" fill="#000000" font-size="5px" font-weight="bold" font-family="'Helvetica Neue', Helvetica, Arial-Unicode, Arial, Sans-serif">Created by WEBTECHOPS LLP</text><text x="0" y="148" fill="#000000" font-size="5px" font-weight="bold" font-family="'Helvetica Neue', Helvetica, Arial-Unicode, Arial, Sans-serif">from the Noun Project</text></svg>