<svg xmlns="http://www.w3.org/2000/svg" data-name="Layer 1" viewBox="0 0 64 80" x="0px" y="0px"><title>legal-condition-insurance-law-policy</title><path d="M59,9H37.19A6.05,6.05,0,0,0,35,6.81V5a3,3,0,0,0-3-3,3,3,0,0,0-3,3V6.81A6.05,6.05,0,0,0,26.81,9H5a3,3,0,0,0-3,3,3,3,0,0,0,3,3h9v8.46l-10.55,7a1,1,0,0,0-.45.83v1.28A17.55,17.55,0,0,0,14.66,48.94a1,1,0,0,0,.68,0A17.55,17.55,0,0,0,27,32.61V31.33a1,1,0,0,0-.45-.83L16,23.46V15H26.81A6.05,6.05,0,0,0,29,17.19V50H27A11,11,0,0,0,16,61a1,1,0,0,0,1,1H47a1,1,0,0,0,1-1A11,11,0,0,0,37,50H35V17.19A6.05,6.05,0,0,0,37.19,15H48v8.46l-10.55,7a1,1,0,0,0-.45.83v1.28A17.55,17.55,0,0,0,48.66,48.94a1,1,0,0,0,.68,0A17.55,17.55,0,0,0,61,32.61V31.33a1,1,0,0,0-.45-.83L50,23.46V15h9a3,3,0,0,0,3-3A3,3,0,0,0,59,9ZM25,32.61A15.53,15.53,0,0,1,15,46.93,15.53,15.53,0,0,1,5,32.61v-.74L15,25.2l10,6.67Zm34,0A15.53,15.53,0,0,1,49,46.93,15.53,15.53,0,0,1,39,32.61v-.74L49,25.2l10,6.67ZM32,16a4,4,0,1,1,4-4A4,4,0,0,1,32,16ZM31,5a1,1,0,0,1,1-1,1,1,0,0,1,.71.31A.93.93,0,0,1,33,5V6.09a5.6,5.6,0,0,0-2,0ZM5,13a1,1,0,0,1-1-1,1,1,0,0,1,.31-.71A.93.93,0,0,1,5,11H26.09A6.64,6.64,0,0,0,26,12a6.64,6.64,0,0,0,.09,1ZM45.94,60H18.06A9,9,0,0,1,27,52H37A9,9,0,0,1,45.94,60ZM33,50H31V17.91a5.6,5.6,0,0,0,2,0ZM59.69,12.71A.93.93,0,0,1,59,13H37.91A6.64,6.64,0,0,0,38,12a6.64,6.64,0,0,0-.09-1H59a1,1,0,0,1,1,1A1,1,0,0,1,59.69,12.71Z"/><path d="M12.76,36.35a1,1,0,1,0-1.52,1.3l2.57,3a1,1,0,0,0,.76.35h.15a1,1,0,0,0,.77-.6l3.43-8a1,1,0,0,0-1.84-.78l-2.79,6.52Z"/><path d="M46.76,36.35a1,1,0,1,0-1.52,1.3l2.57,3a1,1,0,0,0,.76.35h.15a1,1,0,0,0,.77-.6l3.43-8a1,1,0,0,0-1.84-.78l-2.79,6.52Z"/><text x="0" y="79" fill="#000000" font-size="5px" font-weight="bold" font-family="'Helvetica Neue', Helvetica, Arial-Unicode, Arial, Sans-serif">Created by Studio 365</text><text x="0" y="84" fill="#000000" font-size="5px" font-weight="bold" font-family="'Helvetica Neue', Helvetica, Arial-Unicode, Arial, Sans-serif">from the Noun Project</text></svg>