<svg xmlns="http://www.w3.org/2000/svg" xmlns:xlink="http://www.w3.org/1999/xlink" version="1.1" x="0px" y="0px" viewBox="0 0 512 640" style="enable-background:new 0 0 512 512;" xml:space="preserve"><path d="M224.2,276h-57.8c-2.7,0-3,1.6-2.7,4.3c0.4,4.7,4.2,12.8,7.1,12.8h49.1c3.4,0,8.5-11.3,6.9-15.9  C226.5,276.5,225.7,276,224.2,276L224.2,276z M225.3,264c22.8,1,14,36.5-2.5,40.9c-2.7,10.2-4.1,18.3-13.9,24.2  c-14.4,8.6-34.1,2-38.8-16.1l-2.1-8.1c-16.6-4.4-25.3-39.8-2.5-40.9c-4.4-21-23.6-21.1-23.6-54c0-29.6,24-53.6,53.6-53.6  s53.6,24,53.6,53.6C248.9,242.9,229.7,242.6,225.3,264L225.3,264z M188.7,130.4c0-8,12.1-8,12.1,0v9.7c0,8-12.1,8-12.1,0V130.4z   M276.6,205.1c7.9,0,7.9,12.1,0,12.1h-10.8c-7.9,0-7.9-12.1,0-12.1H276.6z M247.5,149.7c5.6-5.6,14.2,3,8.6,8.6l-6.9,6.8  c-5.6,5.7-14.2-2.9-8.5-8.5L247.5,149.7z M114.1,217.2c-8,0-8-12.1,0-12.1h9.7c7.9,0,7.9,12.1,0,12.1H114.1z M133.4,158.3  c-5.7-5.6,2.9-14.2,8.5-8.6l6.9,6.9c5.6,5.6-2.9,14.2-8.6,8.5L133.4,158.3z M208.9,309.9l1.2-4.6h-29.7c1.5,5.6,2.3,10.3,7.6,13.4  C195.5,323.2,206.2,320.1,208.9,309.9L208.9,309.9z M195.3,168.4c-22.9,0-41.5,18.6-41.5,41.5c0,28.8,19.6,26.5,23.8,54h35.3  c4.2-27.8,23.9-25.3,23.9-54C236.8,187,218.2,168.4,195.3,168.4L195.3,168.4z M271.3,267.7l30.4,76.4c1.8,4.6,18.9,7.7,26.5,10.6  c14.8,5,31.9,13.3,45.5,33.8l69.3-40c-18.9-33.1-21.3-42.6-28.3-70.1c-4.1-15.8-9.4-38.6-17.8-53.5c-4.3-7.7-9.4-13.7-15.6-17.8  L332,188V296c0,3.4-4,9.6-11,5.2c-6.3-4-19.1-28-25.9-40.7c-4.4-8.3-8.8-16.7-16.3-17.5C270.2,242.1,266,254.2,271.3,267.7  L271.3,267.7z M290.5,348.6l-30.4-76.4c-14.6-36.9,22.3-58.3,42-24.2c5.3,9.2,11.1,21.1,17.7,32.2V128.3h-92.4  c-4.3,0-7.6-4.5-5.2-9.1c2-3.7,3-9,3-13.3c0-27.3-33.1-41-52.4-21.7c-9.3,9.3-11.6,23.5-5.8,35.3c2,4-1.1,8.7-5.5,8.7l0,0H84.2v86.8  c0,4.1-4.1,7.3-8.5,5.5c-10.4-4.1-23.8-0.9-32,7.3c-19.3,19.3-5.6,52.4,21.7,52.4c3.7,0,7.2-0.6,10.6-1.8c4-1.5,8.2,1.5,8.2,5.7l0,0  v91.7h75c7.1-31.7,46.2-44.6,70.7-22.2c6.4,5.8,11,13.5,12.9,22.2h77v-11.2C307.5,360.9,294.6,358.8,290.5,348.6L290.5,348.6z   M332,175l55.4,21.6c24.5,15.9,31.7,50.3,39,78.8c6.7,26.2,9.1,35.3,27.2,67.1c7.7-3.5,16.8-0.6,21.1,6.8l12.5,21.6  c4.6,7.9,1.8,18-6,22.5h0l-91.6,52.9c-7.9,5.1-18.9,2.2-23.2-6.1l-12.3-21.2l0,0c-4.6-7.7-1.9-18,6-22.6l3.3-1.9  c-9.3-13.6-20.6-20.9-31.3-25.5v12.8c0,3.4-2.7,6.1-6.1,6.1h-88.2c-3.1,0-5.8-2.4-6-5.5c-2.2-25.3-32.7-36.9-51.3-19.9  c-5.5,5-9.1,12-9.8,19.8c-0.3,3.1-2.9,5.6-6.1,5.6H78.1c-3.4,0-6.1-2.7-6.1-6.1v-90c-25.9,4-49.4-16-49.4-42.3s23.5-46.3,49.4-42.3  v-85.1c0-3.4,2.7-6.1,6.1-6.1h74.8c-6.6-27.4,14-53.1,41.6-53.1c27.6,0,48.1,25.7,41.5,53.1h89.8c3.4,0,6.1,2.7,6.1,6.1V175z   M454.3,356l-79.6,46l-8.9,5.2c-1.8,1.1-2.6,3.9-1.4,5.9h0l12.5,21.6c1.3,2.3,3.9,2.8,6.4,1.5l91.8-53h0c2.1-1.2,2.8-4,1.6-6.1  l-12.5-21.6c-1.2-2.1-4-2.8-6.1-1.6l0,0L454.3,356z"/><text x="0" y="527" fill="#000000" font-size="5px" font-weight="bold" font-family="'Helvetica Neue', Helvetica, Arial-Unicode, Arial, Sans-serif">Created by BEJOUN</text><text x="0" y="532" fill="#000000" font-size="5px" font-weight="bold" font-family="'Helvetica Neue', Helvetica, Arial-Unicode, Arial, Sans-serif">from the Noun Project</text></svg>