<svg xmlns="http://www.w3.org/2000/svg" data-name="Layer 1" viewBox="0 0 512 640" x="0px" y="0px"><title>Certified Product</title><g data-name="Group"><path data-name="Compound Path" d="M476,238A228,228,0,0,0,86.779,76.779a228.038,228.038,0,0,0,257.932,367.74l-1.94,46.055c0,.113-.007.225-.007.337A11.11,11.11,0,0,0,349.177,501a10.889,10.889,0,0,0,11.754-1.7L404,462.189l43.085,37.123A10.865,10.865,0,0,0,458.823,501a11.11,11.11,0,0,0,6.413-10.09c0-.112,0-.224-.007-.337l-4.128-98a87.848,87.848,0,0,0,12.406-120.807A230.622,230.622,0,0,0,476,238ZM248,450C131.1,450,36,354.9,36,238S131.1,26,248,26s212,95.1,212,212c0,6.389-.3,12.786-.865,19.143a87.4,87.4,0,0,0-55.071-19.468A89.1,89.1,0,0,0,380,241.038V176.922a8.058,8.058,0,0,0-5.609-7.614l-115.9-37.37a8.076,8.076,0,0,0-4.926,0l-115.944,37.37A8.065,8.065,0,0,0,132,176.922V335.078a8.058,8.058,0,0,0,5.609,7.614l115.9,37.37a8.1,8.1,0,0,0,4.934,0L322.7,359.343a88.415,88.415,0,0,0,24.2,33.233l-1.419,33.714A212.324,212.324,0,0,1,248,450Zm68.064-124.325a87.987,87.987,0,0,0,1.907,18.391L260,362.752V221.406l104-33.5v59.461A87.055,87.055,0,0,0,316.064,325.675ZM148,187.908l96,30.918V360.172l-96-30.92Zm108,17.977-89.808-28.963L256,147.958l89.808,28.964ZM448.754,479.631l-37.336-32.17a10.8,10.8,0,0,0-14.836,0l-37.336,32.17,3.219-76.394a87.857,87.857,0,0,0,83.07,0ZM404,397.675a72,72,0,1,1,72-72A72.081,72.081,0,0,1,404,397.675Z"/><path data-name="Path" d="M439.652,290.927l-47.261,47.261-24.016-24.251a8,8,0,0,0-11.369,11.257l29.673,30.2A8.223,8.223,0,0,0,392.344,358h.012a8.251,8.251,0,0,0,5.665-2.578l52.946-53.063a8.042,8.042,0,0,0-11.315-11.432Z"/></g><text x="0" y="527" fill="#000000" font-size="5px" font-weight="bold" font-family="'Helvetica Neue', Helvetica, Arial-Unicode, Arial, Sans-serif">Created by Kiran Shastry</text><text x="0" y="532" fill="#000000" font-size="5px" font-weight="bold" font-family="'Helvetica Neue', Helvetica, Arial-Unicode, Arial, Sans-serif">from the Noun Project</text></svg>